<mxfile host="app.diagrams.net" modified="2024-02-19T00:02:49.207Z" agent="Mozilla/5.0 (Windows NT 10.0; Win64; x64) AppleWebKit/537.36 (KHTML, like Gecko) Chrome/121.0.0.0 Safari/537.36" etag="780F_MG7x_rQqZMyn5aR" version="23.1.5" type="github">
  <diagram name="Page-1" id="gSwrzad6HnqjXwjjZc5N">
    <mxGraphModel dx="880" dy="434" grid="1" gridSize="10" guides="1" tooltips="1" connect="1" arrows="1" fold="1" page="1" pageScale="1" pageWidth="850" pageHeight="1100" math="0" shadow="0">
      <root>
        <mxCell id="0" />
        <mxCell id="1" parent="0" />
        <mxCell id="I6uTxzheeY5Ma2jro3Wz-3" value="" style="edgeStyle=orthogonalEdgeStyle;rounded=0;orthogonalLoop=1;jettySize=auto;html=1;" edge="1" parent="1" source="I6uTxzheeY5Ma2jro3Wz-1" target="I6uTxzheeY5Ma2jro3Wz-2">
          <mxGeometry relative="1" as="geometry" />
        </mxCell>
        <mxCell id="I6uTxzheeY5Ma2jro3Wz-1" value="Home Page" style="rounded=0;whiteSpace=wrap;html=1;" vertex="1" parent="1">
          <mxGeometry x="100" y="160" width="120" height="60" as="geometry" />
        </mxCell>
        <mxCell id="I6uTxzheeY5Ma2jro3Wz-5" value="" style="edgeStyle=orthogonalEdgeStyle;rounded=0;orthogonalLoop=1;jettySize=auto;html=1;entryX=0;entryY=0.5;entryDx=0;entryDy=0;" edge="1" parent="1" source="I6uTxzheeY5Ma2jro3Wz-2" target="I6uTxzheeY5Ma2jro3Wz-39">
          <mxGeometry relative="1" as="geometry">
            <mxPoint x="670" y="200" as="targetPoint" />
            <Array as="points">
              <mxPoint x="545" y="200" />
              <mxPoint x="545" y="201" />
              <mxPoint x="700" y="201" />
            </Array>
          </mxGeometry>
        </mxCell>
        <mxCell id="I6uTxzheeY5Ma2jro3Wz-7" value="" style="edgeStyle=orthogonalEdgeStyle;rounded=0;orthogonalLoop=1;jettySize=auto;html=1;" edge="1" parent="1" source="I6uTxzheeY5Ma2jro3Wz-2" target="I6uTxzheeY5Ma2jro3Wz-6">
          <mxGeometry relative="1" as="geometry" />
        </mxCell>
        <mxCell id="I6uTxzheeY5Ma2jro3Wz-12" value="" style="edgeStyle=orthogonalEdgeStyle;rounded=0;orthogonalLoop=1;jettySize=auto;html=1;" edge="1" parent="1" source="I6uTxzheeY5Ma2jro3Wz-2" target="I6uTxzheeY5Ma2jro3Wz-11">
          <mxGeometry relative="1" as="geometry" />
        </mxCell>
        <mxCell id="I6uTxzheeY5Ma2jro3Wz-2" value="Navigation Bar" style="rounded=0;whiteSpace=wrap;html=1;" vertex="1" parent="1">
          <mxGeometry x="300" y="170" width="120" height="60" as="geometry" />
        </mxCell>
        <mxCell id="I6uTxzheeY5Ma2jro3Wz-20" value="" style="edgeStyle=orthogonalEdgeStyle;rounded=0;orthogonalLoop=1;jettySize=auto;html=1;exitX=0.5;exitY=1;exitDx=0;exitDy=0;" edge="1" parent="1" source="I6uTxzheeY5Ma2jro3Wz-39" target="I6uTxzheeY5Ma2jro3Wz-19">
          <mxGeometry relative="1" as="geometry">
            <mxPoint x="730" y="230" as="sourcePoint" />
            <Array as="points">
              <mxPoint x="780" y="230" />
              <mxPoint x="790" y="230" />
              <mxPoint x="790" y="231" />
              <mxPoint x="850" y="231" />
            </Array>
          </mxGeometry>
        </mxCell>
        <mxCell id="I6uTxzheeY5Ma2jro3Wz-29" value="" style="edgeStyle=orthogonalEdgeStyle;rounded=0;orthogonalLoop=1;jettySize=auto;html=1;exitX=0;exitY=0;exitDx=0;exitDy=0;" edge="1" parent="1" source="I6uTxzheeY5Ma2jro3Wz-39" target="I6uTxzheeY5Ma2jro3Wz-28">
          <mxGeometry relative="1" as="geometry">
            <mxPoint x="730" y="170" as="sourcePoint" />
          </mxGeometry>
        </mxCell>
        <mxCell id="I6uTxzheeY5Ma2jro3Wz-33" value="" style="edgeStyle=orthogonalEdgeStyle;rounded=0;orthogonalLoop=1;jettySize=auto;html=1;exitX=1;exitY=0.5;exitDx=0;exitDy=0;" edge="1" parent="1" source="I6uTxzheeY5Ma2jro3Wz-39" target="I6uTxzheeY5Ma2jro3Wz-32">
          <mxGeometry relative="1" as="geometry">
            <mxPoint x="790" y="210" as="sourcePoint" />
            <Array as="points">
              <mxPoint x="850" y="170" />
              <mxPoint x="850" y="170" />
            </Array>
          </mxGeometry>
        </mxCell>
        <mxCell id="I6uTxzheeY5Ma2jro3Wz-6" value="Newsletter" style="rounded=0;whiteSpace=wrap;html=1;" vertex="1" parent="1">
          <mxGeometry x="300" y="20" width="120" height="60" as="geometry" />
        </mxCell>
        <mxCell id="I6uTxzheeY5Ma2jro3Wz-14" value="" style="edgeStyle=orthogonalEdgeStyle;rounded=0;orthogonalLoop=1;jettySize=auto;html=1;" edge="1" parent="1" source="I6uTxzheeY5Ma2jro3Wz-11" target="I6uTxzheeY5Ma2jro3Wz-13">
          <mxGeometry relative="1" as="geometry" />
        </mxCell>
        <mxCell id="I6uTxzheeY5Ma2jro3Wz-16" value="" style="edgeStyle=orthogonalEdgeStyle;rounded=0;orthogonalLoop=1;jettySize=auto;html=1;" edge="1" parent="1" source="I6uTxzheeY5Ma2jro3Wz-11" target="I6uTxzheeY5Ma2jro3Wz-15">
          <mxGeometry relative="1" as="geometry" />
        </mxCell>
        <mxCell id="I6uTxzheeY5Ma2jro3Wz-18" value="" style="edgeStyle=orthogonalEdgeStyle;rounded=0;orthogonalLoop=1;jettySize=auto;html=1;" edge="1" parent="1" source="I6uTxzheeY5Ma2jro3Wz-11" target="I6uTxzheeY5Ma2jro3Wz-17">
          <mxGeometry relative="1" as="geometry" />
        </mxCell>
        <mxCell id="I6uTxzheeY5Ma2jro3Wz-11" value="Gallery" style="rounded=0;whiteSpace=wrap;html=1;" vertex="1" parent="1">
          <mxGeometry x="300" y="250" width="120" height="60" as="geometry" />
        </mxCell>
        <mxCell id="I6uTxzheeY5Ma2jro3Wz-13" value="93 H Wheel" style="ellipse;whiteSpace=wrap;html=1;rounded=0;" vertex="1" parent="1">
          <mxGeometry x="190" y="250" width="70" height="60" as="geometry" />
        </mxCell>
        <mxCell id="I6uTxzheeY5Ma2jro3Wz-15" value="3x1 Four Verticals" style="ellipse;whiteSpace=wrap;html=1;rounded=0;" vertex="1" parent="1">
          <mxGeometry x="320" y="340" width="80" height="80" as="geometry" />
        </mxCell>
        <mxCell id="I6uTxzheeY5Ma2jro3Wz-17" value="Michael Crabtree Catch" style="ellipse;whiteSpace=wrap;html=1;rounded=0;" vertex="1" parent="1">
          <mxGeometry x="460" y="240" width="80" height="80" as="geometry" />
        </mxCell>
        <mxCell id="I6uTxzheeY5Ma2jro3Wz-27" value="" style="edgeStyle=orthogonalEdgeStyle;rounded=0;orthogonalLoop=1;jettySize=auto;html=1;" edge="1" parent="1" source="I6uTxzheeY5Ma2jro3Wz-19" target="I6uTxzheeY5Ma2jro3Wz-26">
          <mxGeometry relative="1" as="geometry" />
        </mxCell>
        <mxCell id="I6uTxzheeY5Ma2jro3Wz-19" value="Origin" style="rounded=0;whiteSpace=wrap;html=1;" vertex="1" parent="1">
          <mxGeometry x="860" y="210" width="110" height="60" as="geometry" />
        </mxCell>
        <mxCell id="I6uTxzheeY5Ma2jro3Wz-26" value="Mike Leach and Hal Mumme Picture" style="ellipse;whiteSpace=wrap;html=1;rounded=0;" vertex="1" parent="1">
          <mxGeometry x="1010" y="200" width="80" height="80" as="geometry" />
        </mxCell>
        <mxCell id="I6uTxzheeY5Ma2jro3Wz-31" value="" style="edgeStyle=orthogonalEdgeStyle;rounded=0;orthogonalLoop=1;jettySize=auto;html=1;" edge="1" parent="1" source="I6uTxzheeY5Ma2jro3Wz-28" target="I6uTxzheeY5Ma2jro3Wz-30">
          <mxGeometry relative="1" as="geometry" />
        </mxCell>
        <mxCell id="I6uTxzheeY5Ma2jro3Wz-28" value="History" style="rounded=0;whiteSpace=wrap;html=1;" vertex="1" parent="1">
          <mxGeometry x="590" y="80" width="120" height="60" as="geometry" />
        </mxCell>
        <mxCell id="I6uTxzheeY5Ma2jro3Wz-30" value="Michael Crabtree catch picture" style="rounded=0;whiteSpace=wrap;html=1;" vertex="1" parent="1">
          <mxGeometry x="590" y="10" width="120" height="60" as="geometry" />
        </mxCell>
        <mxCell id="I6uTxzheeY5Ma2jro3Wz-32" value="The System" style="rounded=0;whiteSpace=wrap;html=1;" vertex="1" parent="1">
          <mxGeometry x="860" y="140" width="120" height="60" as="geometry" />
        </mxCell>
        <mxCell id="I6uTxzheeY5Ma2jro3Wz-40" style="edgeStyle=orthogonalEdgeStyle;rounded=0;orthogonalLoop=1;jettySize=auto;html=1;exitX=0.5;exitY=0;exitDx=0;exitDy=0;" edge="1" parent="1" source="I6uTxzheeY5Ma2jro3Wz-39" target="I6uTxzheeY5Ma2jro3Wz-41">
          <mxGeometry relative="1" as="geometry">
            <mxPoint x="780" y="90" as="targetPoint" />
          </mxGeometry>
        </mxCell>
        <mxCell id="I6uTxzheeY5Ma2jro3Wz-44" style="edgeStyle=orthogonalEdgeStyle;rounded=0;orthogonalLoop=1;jettySize=auto;html=1;exitX=0;exitY=1;exitDx=0;exitDy=0;entryX=0.5;entryY=0;entryDx=0;entryDy=0;" edge="1" parent="1" source="I6uTxzheeY5Ma2jro3Wz-39" target="I6uTxzheeY5Ma2jro3Wz-46">
          <mxGeometry relative="1" as="geometry">
            <mxPoint x="620" y="370" as="targetPoint" />
            <Array as="points">
              <mxPoint x="621" y="228" />
            </Array>
          </mxGeometry>
        </mxCell>
        <mxCell id="I6uTxzheeY5Ma2jro3Wz-39" value="Air Raid Offense" style="ellipse;whiteSpace=wrap;html=1;aspect=fixed;" vertex="1" parent="1">
          <mxGeometry x="740" y="130" width="80" height="80" as="geometry" />
        </mxCell>
        <mxCell id="I6uTxzheeY5Ma2jro3Wz-43" value="" style="edgeStyle=orthogonalEdgeStyle;rounded=0;orthogonalLoop=1;jettySize=auto;html=1;" edge="1" parent="1" source="I6uTxzheeY5Ma2jro3Wz-41" target="I6uTxzheeY5Ma2jro3Wz-42">
          <mxGeometry relative="1" as="geometry" />
        </mxCell>
        <mxCell id="I6uTxzheeY5Ma2jro3Wz-41" value="Philosophy" style="rounded=0;whiteSpace=wrap;html=1;" vertex="1" parent="1">
          <mxGeometry x="720" y="20" width="120" height="60" as="geometry" />
        </mxCell>
        <mxCell id="I6uTxzheeY5Ma2jro3Wz-42" value="Jared Goff picture" style="rounded=0;whiteSpace=wrap;html=1;" vertex="1" parent="1">
          <mxGeometry x="910" y="20" width="120" height="60" as="geometry" />
        </mxCell>
        <mxCell id="I6uTxzheeY5Ma2jro3Wz-49" value="" style="edgeStyle=orthogonalEdgeStyle;rounded=0;orthogonalLoop=1;jettySize=auto;html=1;exitX=1;exitY=1;exitDx=0;exitDy=0;" edge="1" parent="1" source="I6uTxzheeY5Ma2jro3Wz-46" target="I6uTxzheeY5Ma2jro3Wz-48">
          <mxGeometry relative="1" as="geometry" />
        </mxCell>
        <mxCell id="I6uTxzheeY5Ma2jro3Wz-50" style="edgeStyle=orthogonalEdgeStyle;rounded=0;orthogonalLoop=1;jettySize=auto;html=1;exitX=1;exitY=0.5;exitDx=0;exitDy=0;" edge="1" parent="1" source="I6uTxzheeY5Ma2jro3Wz-46" target="I6uTxzheeY5Ma2jro3Wz-64">
          <mxGeometry relative="1" as="geometry">
            <mxPoint x="1040" y="520" as="targetPoint" />
            <Array as="points">
              <mxPoint x="790" y="400" />
              <mxPoint x="790" y="400" />
            </Array>
          </mxGeometry>
        </mxCell>
        <mxCell id="I6uTxzheeY5Ma2jro3Wz-51" style="edgeStyle=orthogonalEdgeStyle;rounded=0;orthogonalLoop=1;jettySize=auto;html=1;exitX=0;exitY=1;exitDx=0;exitDy=0;" edge="1" parent="1" source="I6uTxzheeY5Ma2jro3Wz-46" target="I6uTxzheeY5Ma2jro3Wz-67">
          <mxGeometry relative="1" as="geometry">
            <mxPoint x="470" y="540" as="targetPoint" />
          </mxGeometry>
        </mxCell>
        <mxCell id="I6uTxzheeY5Ma2jro3Wz-46" value="Base Play of the Air Raid offense" style="rounded=0;whiteSpace=wrap;html=1;" vertex="1" parent="1">
          <mxGeometry x="560" y="370" width="120" height="60" as="geometry" />
        </mxCell>
        <mxCell id="I6uTxzheeY5Ma2jro3Wz-53" value="" style="edgeStyle=orthogonalEdgeStyle;rounded=0;orthogonalLoop=1;jettySize=auto;html=1;exitX=1;exitY=1;exitDx=0;exitDy=0;" edge="1" parent="1" source="I6uTxzheeY5Ma2jro3Wz-48" target="I6uTxzheeY5Ma2jro3Wz-52">
          <mxGeometry relative="1" as="geometry" />
        </mxCell>
        <mxCell id="I6uTxzheeY5Ma2jro3Wz-56" style="edgeStyle=orthogonalEdgeStyle;rounded=0;orthogonalLoop=1;jettySize=auto;html=1;exitX=0;exitY=1;exitDx=0;exitDy=0;" edge="1" parent="1" source="I6uTxzheeY5Ma2jro3Wz-48" target="I6uTxzheeY5Ma2jro3Wz-57">
          <mxGeometry relative="1" as="geometry">
            <mxPoint x="480" y="660" as="targetPoint" />
          </mxGeometry>
        </mxCell>
        <mxCell id="I6uTxzheeY5Ma2jro3Wz-83" style="edgeStyle=orthogonalEdgeStyle;rounded=0;orthogonalLoop=1;jettySize=auto;html=1;exitX=1;exitY=0.5;exitDx=0;exitDy=0;entryX=0;entryY=0.5;entryDx=0;entryDy=0;" edge="1" parent="1" source="I6uTxzheeY5Ma2jro3Wz-48" target="I6uTxzheeY5Ma2jro3Wz-61">
          <mxGeometry relative="1" as="geometry" />
        </mxCell>
        <mxCell id="I6uTxzheeY5Ma2jro3Wz-48" value="Quick Game" style="rounded=0;whiteSpace=wrap;html=1;" vertex="1" parent="1">
          <mxGeometry x="700" y="470" width="120" height="60" as="geometry" />
        </mxCell>
        <mxCell id="I6uTxzheeY5Ma2jro3Wz-55" value="" style="edgeStyle=orthogonalEdgeStyle;rounded=0;orthogonalLoop=1;jettySize=auto;html=1;" edge="1" parent="1" source="I6uTxzheeY5Ma2jro3Wz-52" target="I6uTxzheeY5Ma2jro3Wz-54">
          <mxGeometry relative="1" as="geometry" />
        </mxCell>
        <mxCell id="I6uTxzheeY5Ma2jro3Wz-52" value="Y Corner" style="rounded=0;whiteSpace=wrap;html=1;" vertex="1" parent="1">
          <mxGeometry x="760" y="570" width="120" height="60" as="geometry" />
        </mxCell>
        <mxCell id="I6uTxzheeY5Ma2jro3Wz-54" value="Y Corner Diagram" style="rounded=0;whiteSpace=wrap;html=1;" vertex="1" parent="1">
          <mxGeometry x="760" y="660" width="120" height="60" as="geometry" />
        </mxCell>
        <mxCell id="I6uTxzheeY5Ma2jro3Wz-59" value="" style="edgeStyle=orthogonalEdgeStyle;rounded=0;orthogonalLoop=1;jettySize=auto;html=1;" edge="1" parent="1" source="I6uTxzheeY5Ma2jro3Wz-57" target="I6uTxzheeY5Ma2jro3Wz-58">
          <mxGeometry relative="1" as="geometry" />
        </mxCell>
        <mxCell id="I6uTxzheeY5Ma2jro3Wz-57" value="Hitch Seams" style="rounded=0;whiteSpace=wrap;html=1;" vertex="1" parent="1">
          <mxGeometry x="630" y="570" width="120" height="60" as="geometry" />
        </mxCell>
        <mxCell id="I6uTxzheeY5Ma2jro3Wz-58" value="Hitch Seams Diagram" style="rounded=0;whiteSpace=wrap;html=1;" vertex="1" parent="1">
          <mxGeometry x="630" y="660" width="120" height="60" as="geometry" />
        </mxCell>
        <mxCell id="I6uTxzheeY5Ma2jro3Wz-63" value="" style="edgeStyle=orthogonalEdgeStyle;rounded=0;orthogonalLoop=1;jettySize=auto;html=1;" edge="1" parent="1" source="I6uTxzheeY5Ma2jro3Wz-61" target="I6uTxzheeY5Ma2jro3Wz-62">
          <mxGeometry relative="1" as="geometry" />
        </mxCell>
        <mxCell id="I6uTxzheeY5Ma2jro3Wz-61" value="Y Stick" style="rounded=0;whiteSpace=wrap;html=1;" vertex="1" parent="1">
          <mxGeometry x="940" y="470" width="120" height="60" as="geometry" />
        </mxCell>
        <mxCell id="I6uTxzheeY5Ma2jro3Wz-62" value="Y Stick Diagram" style="rounded=0;whiteSpace=wrap;html=1;" vertex="1" parent="1">
          <mxGeometry x="990" y="570" width="120" height="60" as="geometry" />
        </mxCell>
        <mxCell id="I6uTxzheeY5Ma2jro3Wz-66" value="" style="edgeStyle=orthogonalEdgeStyle;rounded=0;orthogonalLoop=1;jettySize=auto;html=1;" edge="1" parent="1" source="I6uTxzheeY5Ma2jro3Wz-64" target="I6uTxzheeY5Ma2jro3Wz-65">
          <mxGeometry relative="1" as="geometry" />
        </mxCell>
        <mxCell id="I6uTxzheeY5Ma2jro3Wz-64" value="Screens" style="rounded=0;whiteSpace=wrap;html=1;" vertex="1" parent="1">
          <mxGeometry x="790" y="370" width="120" height="60" as="geometry" />
        </mxCell>
        <mxCell id="I6uTxzheeY5Ma2jro3Wz-65" value="Larry/Randy Diagrams" style="rounded=0;whiteSpace=wrap;html=1;" vertex="1" parent="1">
          <mxGeometry x="960" y="370" width="120" height="60" as="geometry" />
        </mxCell>
        <mxCell id="I6uTxzheeY5Ma2jro3Wz-69" style="edgeStyle=orthogonalEdgeStyle;rounded=0;orthogonalLoop=1;jettySize=auto;html=1;exitX=1;exitY=1;exitDx=0;exitDy=0;" edge="1" parent="1" source="I6uTxzheeY5Ma2jro3Wz-67" target="I6uTxzheeY5Ma2jro3Wz-70">
          <mxGeometry relative="1" as="geometry">
            <mxPoint x="250" y="560" as="targetPoint" />
          </mxGeometry>
        </mxCell>
        <mxCell id="I6uTxzheeY5Ma2jro3Wz-77" style="edgeStyle=orthogonalEdgeStyle;rounded=0;orthogonalLoop=1;jettySize=auto;html=1;exitX=0;exitY=1;exitDx=0;exitDy=0;" edge="1" parent="1" source="I6uTxzheeY5Ma2jro3Wz-67" target="I6uTxzheeY5Ma2jro3Wz-78">
          <mxGeometry relative="1" as="geometry">
            <mxPoint x="270" y="510" as="targetPoint" />
          </mxGeometry>
        </mxCell>
        <mxCell id="I6uTxzheeY5Ma2jro3Wz-81" style="edgeStyle=orthogonalEdgeStyle;rounded=0;orthogonalLoop=1;jettySize=auto;html=1;exitX=0;exitY=0.25;exitDx=0;exitDy=0;" edge="1" parent="1" source="I6uTxzheeY5Ma2jro3Wz-67">
          <mxGeometry relative="1" as="geometry">
            <mxPoint x="360" y="480" as="targetPoint" />
          </mxGeometry>
        </mxCell>
        <mxCell id="I6uTxzheeY5Ma2jro3Wz-87" style="edgeStyle=orthogonalEdgeStyle;rounded=0;orthogonalLoop=1;jettySize=auto;html=1;exitX=0;exitY=0.75;exitDx=0;exitDy=0;" edge="1" parent="1" source="I6uTxzheeY5Ma2jro3Wz-67" target="I6uTxzheeY5Ma2jro3Wz-88">
          <mxGeometry relative="1" as="geometry">
            <mxPoint x="100" y="520" as="targetPoint" />
          </mxGeometry>
        </mxCell>
        <mxCell id="I6uTxzheeY5Ma2jro3Wz-92" value="" style="edgeStyle=orthogonalEdgeStyle;rounded=0;orthogonalLoop=1;jettySize=auto;html=1;" edge="1" parent="1" source="I6uTxzheeY5Ma2jro3Wz-67" target="I6uTxzheeY5Ma2jro3Wz-91">
          <mxGeometry relative="1" as="geometry" />
        </mxCell>
        <mxCell id="I6uTxzheeY5Ma2jro3Wz-95" style="edgeStyle=orthogonalEdgeStyle;rounded=0;orthogonalLoop=1;jettySize=auto;html=1;exitX=0;exitY=0.25;exitDx=0;exitDy=0;" edge="1" parent="1" source="I6uTxzheeY5Ma2jro3Wz-67" target="I6uTxzheeY5Ma2jro3Wz-96">
          <mxGeometry relative="1" as="geometry">
            <mxPoint x="110" y="410" as="targetPoint" />
          </mxGeometry>
        </mxCell>
        <mxCell id="I6uTxzheeY5Ma2jro3Wz-99" style="edgeStyle=orthogonalEdgeStyle;rounded=0;orthogonalLoop=1;jettySize=auto;html=1;exitX=0;exitY=0;exitDx=0;exitDy=0;entryX=0.5;entryY=1;entryDx=0;entryDy=0;" edge="1" parent="1" source="I6uTxzheeY5Ma2jro3Wz-67" target="I6uTxzheeY5Ma2jro3Wz-101">
          <mxGeometry relative="1" as="geometry">
            <mxPoint x="210" y="390" as="targetPoint" />
            <Array as="points">
              <mxPoint x="350" y="410" />
              <mxPoint x="281" y="410" />
              <mxPoint x="281" y="411" />
              <mxPoint x="211" y="411" />
            </Array>
          </mxGeometry>
        </mxCell>
        <mxCell id="I6uTxzheeY5Ma2jro3Wz-67" value="Dropback Passes" style="rounded=0;whiteSpace=wrap;html=1;" vertex="1" parent="1">
          <mxGeometry x="350" y="430" width="120" height="60" as="geometry" />
        </mxCell>
        <mxCell id="I6uTxzheeY5Ma2jro3Wz-72" value="" style="edgeStyle=orthogonalEdgeStyle;rounded=0;orthogonalLoop=1;jettySize=auto;html=1;" edge="1" parent="1" source="I6uTxzheeY5Ma2jro3Wz-70" target="I6uTxzheeY5Ma2jro3Wz-71">
          <mxGeometry relative="1" as="geometry" />
        </mxCell>
        <mxCell id="I6uTxzheeY5Ma2jro3Wz-70" value="91 Shallow" style="rounded=0;whiteSpace=wrap;html=1;" vertex="1" parent="1">
          <mxGeometry x="500" y="490" width="120" height="60" as="geometry" />
        </mxCell>
        <mxCell id="I6uTxzheeY5Ma2jro3Wz-71" value="91 Shallow Diagram" style="rounded=0;whiteSpace=wrap;html=1;" vertex="1" parent="1">
          <mxGeometry x="500" y="570" width="120" height="60" as="geometry" />
        </mxCell>
        <mxCell id="I6uTxzheeY5Ma2jro3Wz-76" value="" style="edgeStyle=orthogonalEdgeStyle;rounded=0;orthogonalLoop=1;jettySize=auto;html=1;" edge="1" parent="1" source="I6uTxzheeY5Ma2jro3Wz-74" target="I6uTxzheeY5Ma2jro3Wz-75">
          <mxGeometry relative="1" as="geometry" />
        </mxCell>
        <mxCell id="I6uTxzheeY5Ma2jro3Wz-75" value="92 Mesh Diagram" style="rounded=0;whiteSpace=wrap;html=1;" vertex="1" parent="1">
          <mxGeometry x="380" y="590" width="120" height="60" as="geometry" />
        </mxCell>
        <mxCell id="I6uTxzheeY5Ma2jro3Wz-80" value="" style="edgeStyle=orthogonalEdgeStyle;rounded=0;orthogonalLoop=1;jettySize=auto;html=1;" edge="1" parent="1" source="I6uTxzheeY5Ma2jro3Wz-78" target="I6uTxzheeY5Ma2jro3Wz-79">
          <mxGeometry relative="1" as="geometry" />
        </mxCell>
        <mxCell id="I6uTxzheeY5Ma2jro3Wz-78" value="93 Wheel" style="rounded=0;whiteSpace=wrap;html=1;" vertex="1" parent="1">
          <mxGeometry x="260" y="520" width="120" height="60" as="geometry" />
        </mxCell>
        <mxCell id="I6uTxzheeY5Ma2jro3Wz-79" value="93 Wheel Diagram" style="rounded=0;whiteSpace=wrap;html=1;" vertex="1" parent="1">
          <mxGeometry x="260" y="590" width="120" height="60" as="geometry" />
        </mxCell>
        <mxCell id="I6uTxzheeY5Ma2jro3Wz-85" value="" style="edgeStyle=orthogonalEdgeStyle;rounded=0;orthogonalLoop=1;jettySize=auto;html=1;exitX=0.75;exitY=1;exitDx=0;exitDy=0;" edge="1" parent="1" source="I6uTxzheeY5Ma2jro3Wz-67" target="I6uTxzheeY5Ma2jro3Wz-74">
          <mxGeometry relative="1" as="geometry">
            <mxPoint x="120" y="620" as="targetPoint" />
            <mxPoint x="350" y="490" as="sourcePoint" />
          </mxGeometry>
        </mxCell>
        <mxCell id="I6uTxzheeY5Ma2jro3Wz-74" value="92 Mesh" style="rounded=0;whiteSpace=wrap;html=1;" vertex="1" parent="1">
          <mxGeometry x="380" y="520" width="120" height="60" as="geometry" />
        </mxCell>
        <mxCell id="I6uTxzheeY5Ma2jro3Wz-90" value="" style="edgeStyle=orthogonalEdgeStyle;rounded=0;orthogonalLoop=1;jettySize=auto;html=1;" edge="1" parent="1" source="I6uTxzheeY5Ma2jro3Wz-88" target="I6uTxzheeY5Ma2jro3Wz-89">
          <mxGeometry relative="1" as="geometry" />
        </mxCell>
        <mxCell id="I6uTxzheeY5Ma2jro3Wz-88" value="94 Y Sail" style="rounded=0;whiteSpace=wrap;html=1;" vertex="1" parent="1">
          <mxGeometry x="140" y="520" width="120" height="60" as="geometry" />
        </mxCell>
        <mxCell id="I6uTxzheeY5Ma2jro3Wz-89" value="94 Y Sail Diagram" style="rounded=0;whiteSpace=wrap;html=1;" vertex="1" parent="1">
          <mxGeometry x="140" y="590" width="120" height="60" as="geometry" />
        </mxCell>
        <mxCell id="I6uTxzheeY5Ma2jro3Wz-94" value="" style="edgeStyle=orthogonalEdgeStyle;rounded=0;orthogonalLoop=1;jettySize=auto;html=1;" edge="1" parent="1" source="I6uTxzheeY5Ma2jro3Wz-91" target="I6uTxzheeY5Ma2jro3Wz-93">
          <mxGeometry relative="1" as="geometry" />
        </mxCell>
        <mxCell id="I6uTxzheeY5Ma2jro3Wz-91" value="95 Y Cross" style="rounded=0;whiteSpace=wrap;html=1;" vertex="1" parent="1">
          <mxGeometry x="20" y="520" width="120" height="60" as="geometry" />
        </mxCell>
        <mxCell id="I6uTxzheeY5Ma2jro3Wz-93" value="95 Y Cross Diagram" style="rounded=0;whiteSpace=wrap;html=1;" vertex="1" parent="1">
          <mxGeometry x="20" y="590" width="120" height="60" as="geometry" />
        </mxCell>
        <mxCell id="I6uTxzheeY5Ma2jro3Wz-98" value="" style="edgeStyle=orthogonalEdgeStyle;rounded=0;orthogonalLoop=1;jettySize=auto;html=1;" edge="1" parent="1" source="I6uTxzheeY5Ma2jro3Wz-96" target="I6uTxzheeY5Ma2jro3Wz-97">
          <mxGeometry relative="1" as="geometry" />
        </mxCell>
        <mxCell id="I6uTxzheeY5Ma2jro3Wz-96" value="95 Y Cross" style="rounded=0;whiteSpace=wrap;html=1;" vertex="1" parent="1">
          <mxGeometry x="10" y="390" width="120" height="60" as="geometry" />
        </mxCell>
        <mxCell id="I6uTxzheeY5Ma2jro3Wz-97" value="95 Y Cross Diagram" style="rounded=0;whiteSpace=wrap;html=1;" vertex="1" parent="1">
          <mxGeometry x="10" y="320" width="120" height="60" as="geometry" />
        </mxCell>
        <mxCell id="I6uTxzheeY5Ma2jro3Wz-101" value="98 Smash" style="rounded=0;whiteSpace=wrap;html=1;" vertex="1" parent="1">
          <mxGeometry x="150" y="330" width="120" height="60" as="geometry" />
        </mxCell>
      </root>
    </mxGraphModel>
  </diagram>
</mxfile>
